<?xml version="1.0" standalone="no"?><!DOCTYPE svg PUBLIC "-//W3C//DTD SVG 1.1//EN" "http://www.w3.org/Graphics/SVG/1.1/DTD/svg11.dtd"><svg width="200" height="200" viewBox="0 0 200 200" version="1.1" xmlns="http://www.w3.org/2000/svg" xmlns:xlink="http://www.w3.org/1999/xlink"><defs><style type="text/css"><![CDATA[
@font-face { font-family: ifont; src: url(http://at.alicdn.com/t/font_1442373896_4754455.eot?#iefix) format(embedded-opentype), url(http://at.alicdn.com/t/font_1442373896_4754455.woff) format(woff), url(http://at.alicdn.com/t/font_1442373896_4754455.ttf) format(truetype), url(http://at.alicdn.com/t/font_1442373896_4754455.svg#ifont) format(svg); }

]]></style></defs><g class="transform-group"><g transform="scale(0.1953125, 0.1953125)"><path d="M511.816828 28.606525c-266.74932 0-482.996432 216.246089-482.996432 482.996432s216.246089 482.996432 482.996432 482.996432 482.996432-216.246089 482.996432-482.996432S778.566148 28.606525 511.816828 28.606525zM511.816828 926.809447c-229.312686 0-415.207513-185.893804-415.207513-415.207513S282.504142 96.395444 511.816828 96.395444s415.207513 185.893804 415.207513 415.207513S741.129514 926.809447 511.816828 926.809447zM520.290827 503.128959m-67.788919 0a66.245 66.245 0 1 0 135.577838 0 66.245 66.245 0 1 0-135.577838 0ZM316.924069 503.128959m-67.788919 0a66.245 66.245 0 1 0 135.577838 0 66.245 66.245 0 1 0-135.577838 0ZM723.657584 503.128959m-67.788919 0a66.245 66.245 0 1 0 135.577838 0 66.245 66.245 0 1 0-135.577838 0Z" fill="#4ba058"></path></g></g></svg>