<?xml version="1.0" standalone="no"?><!DOCTYPE svg PUBLIC "-//W3C//DTD SVG 1.1//EN" "http://www.w3.org/Graphics/SVG/1.1/DTD/svg11.dtd"><svg width="200" height="200" viewBox="0 0 200 200" version="1.1" xmlns="http://www.w3.org/2000/svg" xmlns:xlink="http://www.w3.org/1999/xlink"><defs><style type="text/css"><![CDATA[
@font-face { font-family: ifont; src: url(http://at.alicdn.com/t/font_1442373896_4754455.eot?#iefix) format(embedded-opentype), url(http://at.alicdn.com/t/font_1442373896_4754455.woff) format(woff), url(http://at.alicdn.com/t/font_1442373896_4754455.ttf) format(truetype), url(http://at.alicdn.com/t/font_1442373896_4754455.svg#ifont) format(svg); }

]]></style></defs><g class="transform-group"><g transform="scale(0.1953125, 0.1953125)"><path d="M928.192 241.28l-180.16 0L748.032 238.848c0-66.112-53.504-119.744-119.168-119.744L395.328 119.104c-65.792 0-119.168 53.568-119.168 119.744L276.16 241.28 96 241.28C52.096 241.28 0 326.016 0 370.112l0 423.168c0 44.032 52.096 121.28 96 121.28l832.192 0c43.776 0 95.808-77.248 95.808-121.28L1024 370.112C1024 326.016 971.968 241.28 928.192 241.28zM512.832 802.24c-112.064 0-209.344-91.264-209.344-203.776 0-112.512 97.28-203.712 209.344-203.712 111.808 0 209.28 91.136 209.28 203.712C722.048 710.976 624.64 802.24 512.832 802.24zM913.728 401.344l-85.184 0L828.544 355.008l85.184 0L913.728 401.344zM512.832 470.592c-64.32 0-114.304 56.704-114.304 121.344 0 64.512 49.92 127.744 114.304 127.744 64.192 0 114.112-63.232 114.112-127.744C626.944 527.232 577.024 470.592 512.832 470.592z" fill="#cfcdcd"></path></g></g></svg>