<?xml version="1.0" standalone="no"?><!DOCTYPE svg PUBLIC "-//W3C//DTD SVG 1.1//EN" "http://www.w3.org/Graphics/SVG/1.1/DTD/svg11.dtd"><svg width="200" height="200" viewBox="0 0 200 200" version="1.1" xmlns="http://www.w3.org/2000/svg" xmlns:xlink="http://www.w3.org/1999/xlink"><defs><style type="text/css"><![CDATA[
@font-face { font-family: ifont; src: url(http://at.alicdn.com/t/font_1442373896_4754455.eot?#iefix) format(embedded-opentype), url(http://at.alicdn.com/t/font_1442373896_4754455.woff) format(woff), url(http://at.alicdn.com/t/font_1442373896_4754455.ttf) format(truetype), url(http://at.alicdn.com/t/font_1442373896_4754455.svg#ifont) format(svg); }

]]></style></defs><g class="transform-group"><g transform="scale(0.1953125, 0.1953125)"><path d="M511.78496 1021.87008c-281.02656 0-509.65504-228.62848-509.65504-509.6448 0-281.02656 228.62848-509.66528 509.65504-509.66528S1021.44 231.19872 1021.44 512.22528C1021.44 793.2416 792.81152 1021.87008 511.78496 1021.87008zM511.78496 64c-247.1424 0-448.21504 201.07264-448.21504 448.22528 0 247.1424 201.07264 448.2048 448.21504 448.2048S960 759.36768 960 512.22528C960 265.07264 758.92736 64 511.78496 64zM793.45664 405.80096 216.1152 405.80096l0 71.7312 577.34144 0L793.45664 405.80096zM793.45664 405.8624 527.69792 207.39072l-45.04576 56.75008 265.75872 198.47168L793.45664 405.8624zM213.0944 637.5424l577.35168 0 0-71.7312L213.0944 565.8112 213.0944 637.5424zM213.0944 637.48096l265.75872 198.46144 45.04576-56.73984L258.14016 580.72064 213.0944 637.48096z" fill="#ea7652"></path></g></g></svg>