<?xml version="1.0" standalone="no"?><!DOCTYPE svg PUBLIC "-//W3C//DTD SVG 1.1//EN" "http://www.w3.org/Graphics/SVG/1.1/DTD/svg11.dtd"><svg width="200" height="200" viewBox="0 0 200 200" version="1.1" xmlns="http://www.w3.org/2000/svg" xmlns:xlink="http://www.w3.org/1999/xlink"><defs><style type="text/css"><![CDATA[
@font-face { font-family: ifont; src: url(http://at.alicdn.com/t/font_1442373896_4754455.eot?#iefix) format(embedded-opentype), url(http://at.alicdn.com/t/font_1442373896_4754455.woff) format(woff), url(http://at.alicdn.com/t/font_1442373896_4754455.ttf) format(truetype), url(http://at.alicdn.com/t/font_1442373896_4754455.svg#ifont) format(svg); }

]]></style></defs><g class="transform-group"><g transform="scale(0.1953125, 0.1953125)"><path d="M823.351351 758.756324 823.351351 758.756324l179.615135 180.390054c17.657081 15.941189 17.657081 42.454486 0 58.340324-15.830486 15.941189-42.233081 15.941189-58.118919 0l-181.386378-178.563459c-35.203459 30.055784-74.004757 53.026595-116.237838 70.739027-52.860541 22.915459-112.750703 33.542919-172.640865 33.542919-61.606054 0-119.724973-12.398703-174.356757-33.542919-54.576432-23.026162-105.66573-56.569081-146.182919-99.023568-42.233081-42.454486-75.720649-91.993946-98.636108-148.563027l-1.771243-1.715892C32.546595 587.277838 20.203243 528.992865 20.203243 468.881297c0-61.882811 12.343351-120.223135 33.432216-173.24973 22.915459-56.569081 56.403027-106.053189 98.636108-148.507676 81.034378-83.082378 195.500973-132.566486 320.595027-132.566486 59.834811 0 119.724973 12.343351 172.585514 35.369514l0 0 0 0c54.576432 22.970811 105.66573 56.569081 147.954162 98.968216l1.771243 1.771243c40.461838 40.683243 73.949405 90.167351 96.864865 144.965189l0 1.771243c21.144216 53.026595 33.432216 111.366919 33.432216 171.478486 0 61.882811-12.343351 120.223135-35.258811 173.24973C874.496 684.585514 851.580541 725.213405 823.351351 758.756324L823.351351 758.756324 823.351351 758.756324zM615.507027 125.924324 615.507027 125.924324c-44.004324-17.657081-91.495784-28.284541-140.869189-28.284541-102.178595 0-195.556324 40.683243-262.476108 107.824432C178.729514 239.062486 150.555676 281.516973 131.182703 325.687351 113.525622 369.913081 102.953514 417.625946 102.953514 467.054703c0 49.539459 8.856216 97.307676 26.457946 141.422703l0 1.826595c19.372973 44.22573 45.775568 86.569514 81.034378 120.223135 33.432216 33.542919 73.949405 61.827459 119.724973 81.311135 42.288432 17.712432 91.606486 28.339892 140.924541 28.339892s98.636108-10.572108 140.869189-28.339892c44.004324-19.483676 86.348108-45.941622 119.780324-79.595243l0 0c33.432216-33.59827 61.606054-75.997405 80.979027-120.223135 17.60173-42.399135 28.229189-91.883243 28.229189-141.422703 0-49.484108-10.572108-97.196973-26.402595-139.651459l-1.826595-1.771243c-19.372973-44.170378-44.004324-84.853622-77.436541-118.451892l-1.771243-1.771243C701.855135 171.865946 661.282595 145.297297 615.507027 125.924324L615.507027 125.924324 615.507027 125.924324 615.507027 125.924324zM278.804757 639.80627 278.804757 639.80627c9.963243 10.018595 8.745514 26.236541 0 34.982054-9.963243 10.073946-26.125838 8.745514-34.871351 0-27.398919-27.45427-49.816216-60.000865-63.488-96.200649l0 0C165.500541 543.494919 158.028108 506.022054 158.028108 466.058378c0-40.019027 7.472432-77.547243 22.417297-112.529297 13.671784-36.255135 36.089081-68.746378 63.488-96.256 9.963243-10.018595 24.908108-10.018595 34.871351 0 9.963243 10.018595 9.963243 25.018811 0 34.982054C256.387459 314.783135 238.951784 342.292757 225.28 371.020108c-11.236324 28.782703-17.435676 60.000865-18.708757 93.765189 0 32.491243 6.254703 63.764757 17.435676 92.492108l0 2.490811C238.951784 589.768649 256.387459 617.222919 278.804757 639.80627L278.804757 639.80627 278.804757 639.80627z" fill="#e64168"></path></g></g></svg>