<?xml version="1.0" standalone="no"?><!DOCTYPE svg PUBLIC "-//W3C//DTD SVG 1.1//EN" "http://www.w3.org/Graphics/SVG/1.1/DTD/svg11.dtd"><svg width="200" height="200" viewBox="0 0 200 200" version="1.1" xmlns="http://www.w3.org/2000/svg" xmlns:xlink="http://www.w3.org/1999/xlink"><defs><style type="text/css"><![CDATA[
@font-face { font-family: ifont; src: url(http://at.alicdn.com/t/font_1442373896_4754455.eot?#iefix) format(embedded-opentype), url(http://at.alicdn.com/t/font_1442373896_4754455.woff) format(woff), url(http://at.alicdn.com/t/font_1442373896_4754455.ttf) format(truetype), url(http://at.alicdn.com/t/font_1442373896_4754455.svg#ifont) format(svg); }

]]></style></defs><g class="transform-group"><g transform="scale(0.1953125, 0.1953125)"><path d="M510.506996 725.257012c120.230292 0 218.047108-97.822956 218.047108-218.061434L728.554104 307.571051c0-120.237455-97.816816-218.054271-218.047108-218.054271-120.245641 0-218.061434 97.815793-218.061434 218.054271l0 199.624527C292.445562 627.434056 390.261355 725.257012 510.506996 725.257012zM341.313549 307.571051c0-93.290733 75.895551-169.18526 169.193447-169.18526 93.282546 0 169.179121 75.895551 169.179121 169.18526l0 199.624527c0 93.291756-75.896574 169.193447-169.179121 169.193447-93.297896 0-169.193447-75.902714-169.193447-169.193447L341.313549 307.571051zM826.416969 504.038678l-48.867988 0c0 147.247622-119.800503 267.048125-267.040962 267.048125-147.256832 0-267.057335-119.800503-267.057335-267.048125l-48.867988 0c0 165.948543 128.698151 302.128085 291.491841 314.678936l0 76.80834L355.487364 895.525953l0 48.867988 310.022892 0 0-48.867988L534.941502 895.525953l0-76.80834C697.720865 806.16574 826.416969 669.986197 826.416969 504.038678z" fill="#f69c00"></path></g></g></svg>