<?xml version="1.0" standalone="no"?><!DOCTYPE svg PUBLIC "-//W3C//DTD SVG 1.1//EN" "http://www.w3.org/Graphics/SVG/1.1/DTD/svg11.dtd"><svg width="200" height="200" viewBox="0 0 200 200" version="1.1" xmlns="http://www.w3.org/2000/svg" xmlns:xlink="http://www.w3.org/1999/xlink"><defs><style type="text/css"><![CDATA[
@font-face { font-family: ifont; src: url(http://at.alicdn.com/t/font_1442373896_4754455.eot?#iefix) format(embedded-opentype), url(http://at.alicdn.com/t/font_1442373896_4754455.woff) format(woff), url(http://at.alicdn.com/t/font_1442373896_4754455.ttf) format(truetype), url(http://at.alicdn.com/t/font_1442373896_4754455.svg#ifont) format(svg); }

]]></style></defs><g class="transform-group"><g transform="scale(0.1953125, 0.1953125)"><path d="M-5209.472-3294.656M719.54 330.74c-17.1-12.6-41.28-8.94-53.88 8.22l-210.18 285.84-98.1-121.68c-13.32-16.56-37.62-19.2-54.18-5.82s-19.2 37.62-5.82 54.18l129.48 160.68c7.38 9.060 18.36 14.34 30 14.34h0.84c11.94-0.3 23.1-6.12 30.18-15.78l239.82-326.1c12.66-17.1 8.94-41.28-8.16-53.88v0zM719.54 330.74zM512 62c-248.119 0-450 201.881-450 450s201.881 450 450 450c248.175 0 450-201.881 450-450s-201.825-450-450-450v0zM512 874.419c-199.856 0-362.475-162.619-362.475-362.419 0-199.856 162.619-362.475 362.475-362.475s362.475 162.619 362.475 362.475c0 199.856-162.562 362.419-362.475 362.419v0zM512 874.419z" fill="#ff5300"></path></g></g></svg>