<?xml version="1.0" standalone="no"?><!DOCTYPE svg PUBLIC "-//W3C//DTD SVG 1.1//EN" "http://www.w3.org/Graphics/SVG/1.1/DTD/svg11.dtd"><svg width="200" height="200" viewBox="0 0 200 200" version="1.1" xmlns="http://www.w3.org/2000/svg" xmlns:xlink="http://www.w3.org/1999/xlink"><defs><style type="text/css"><![CDATA[
@font-face { font-family: ifont; src: url(http://at.alicdn.com/t/font_1442373896_4754455.eot?#iefix) format(embedded-opentype), url(http://at.alicdn.com/t/font_1442373896_4754455.woff) format(woff), url(http://at.alicdn.com/t/font_1442373896_4754455.ttf) format(truetype), url(http://at.alicdn.com/t/font_1442373896_4754455.svg#ifont) format(svg); }

]]></style></defs><g class="transform-group"><g transform="scale(0.1953125, 0.1953125)"><path d="M512 1008.69283c-274.309904 0-496.69283-222.382926-496.69283-496.69283 0-274.309904 222.382926-496.69283 496.69283-496.69283 274.318935 0 496.69283 222.373895 496.69283 496.69283C1008.69283 786.309904 786.309904 1008.69283 512 1008.69283zM512 77.393774C271.970932 77.393774 77.393774 271.970932 77.393774 512c0 240.029068 194.577158 434.606226 434.606226 434.606226 240.029068 0 434.606226-194.577158 434.606226-434.606226C946.606226 271.970932 752.029068 77.393774 512 77.393774zM556.079231 512.171585 687.603492 643.704877c12.128336 12.119305 12.128336 31.77931 0 43.898615-12.119305 12.119305-31.77931 12.119305-43.898615 0L512.171585 556.0702 379.744246 688.497539c-12.218644 12.218644-32.032172 12.218644-44.250816 0-12.218644-12.218644-12.218644-32.023141 0-44.241785l132.427339-132.427339L336.396508 380.295123c-12.128336-12.119305-12.128336-31.77931 0-43.898615 12.119305-12.128336 31.77931-12.128336 43.898615 0l131.533292 131.533292 133.402663-133.402663c12.218644-12.218644 32.032172-12.218644 44.250816 0 12.218644 12.218644 12.218644 32.032172 0 44.241785L556.079231 512.171585z" fill="#4ba058"></path></g></g></svg>