<?xml version="1.0" standalone="no"?><!DOCTYPE svg PUBLIC "-//W3C//DTD SVG 1.1//EN" "http://www.w3.org/Graphics/SVG/1.1/DTD/svg11.dtd"><svg width="200" height="200" viewBox="0 0 200 200" version="1.1" xmlns="http://www.w3.org/2000/svg" xmlns:xlink="http://www.w3.org/1999/xlink"><defs><style type="text/css"><![CDATA[
@font-face { font-family: ifont; src: url(http://at.alicdn.com/t/font_1442373896_4754455.eot?#iefix) format(embedded-opentype), url(http://at.alicdn.com/t/font_1442373896_4754455.woff) format(woff), url(http://at.alicdn.com/t/font_1442373896_4754455.ttf) format(truetype), url(http://at.alicdn.com/t/font_1442373896_4754455.svg#ifont) format(svg); }

]]></style></defs><g class="transform-group"><g transform="scale(0.1953125, 0.1953125)"><path d="M955.682529 925.868515 955.682529 958.590384C955.682529 994.724334 929.204771 1024 896.551144 1024L127.9455 1024C95.291873 1024 68.814114 994.724334 68.814114 958.590384L68.814114 925.868515C68.472906 920.409183 68.814114 898.776582 68.814114 893.180767 68.814114 685.384959 267.329059 579.508047 512.248322 579.508047 757.133464 579.508047 955.682529 685.384959 955.682529 893.180767 955.682529 898.776582 956.023738 920.409183 955.682529 925.868515ZM511.73651 512.153544C389.78869 512.153544 344.032668 423.029956 303.224164 350.864416 284.014141 316.914198 273.061357 277.743494 273.061357 236.047849 273.061357 105.80867 379.927773 0.272967 511.73651 0.272967 643.545246 0.272967 750.411662 105.80867 750.411662 236.047849 750.411662 278.050581 739.288274 317.494252 719.805284 351.649195 678.860297 423.371164 630.8523 512.153544 511.73651 512.153544Z" fill="#a9b7b7"></path></g></g></svg>